<svg xmlns="http://www.w3.org/2000/svg" viewBox="0 0 40 40"><defs><style>.cls-1{fill:#e8e8e8;}</style></defs><title>Asset 1</title><g id="Layer_2" data-name="Layer 2"><g id="Layer_1-2" data-name="Layer 1"><path class="cls-1" d="M20,0A20,20,0,1,0,40,20,20,20,0,0,0,20,0Zm0,38.14A18.14,18.14,0,1,1,38.14,20,18.16,18.16,0,0,1,20,38.14Z"/><path class="cls-1" d="M28.46,22.25a.8.8,0,0,0-.72-.38.67.67,0,0,0-.62.29,2,2,0,0,0-.24.6,2.74,2.74,0,0,0-.07.62V28H24.86l-5-8.29s5-7.91,5.16-8a.87.87,0,0,0,.21-.47,1.24,1.24,0,0,0,0-.52,1,1,0,0,0-.24-.43,1.36,1.36,0,0,0-.72-.24A9,9,0,0,0,23,10H14.13A9,9,0,0,0,13,10a1.34,1.34,0,0,0-.72.24.94.94,0,0,0-.21.4,1.44,1.44,0,0,0,0,.51,1.12,1.12,0,0,0,.14.48c.08.15,5.11,8.17,5.11,8.17s-5.32,8.42-5.43,8.55a.76.76,0,0,0-.21.43,1.18,1.18,0,0,0,0,.49.9.9,0,0,0,.24.41,1.68,1.68,0,0,0,.86.26c.39,0,.78.05,1.17.05L27.57,30a1.13,1.13,0,0,0,.82-.35,1.52,1.52,0,0,0,.28-.92v-5.5a3.08,3.08,0,0,0,0-.46A1.06,1.06,0,0,0,28.46,22.25ZM22.15,12l-2.53,4.19V12Zm-7,0h2.39v4.13ZM16.9,28.07H16a4.15,4.15,0,0,0-.54,0h-.62l2.7-4.65v4.68Zm2.72-4.38L22.16,28H19.62Z"/></g></g></svg>